# xmcd
#
# Track frame offsets:
#   150
#   18828
#   31699
#   46864
#   63650
#   75811
#   95736
#   109127
#   137610
#   150697
#   173644
#   189205
#   213853
#   241495
#   266746
#   286500
#   299780
#   325994
#   341357
#
# Disc length: 4761 seconds
#
# Revision: 0
# Processed by: cddbd v1.5.1PL0 Copyright (c) Steve Scherf et al.
# Submitted via: Media_Universe 3.0
#
DISCID=00129713
DTITLE=Stevie Wonder/ Phil Collins - Mixed
DYEAR=1900
DGENRE=Country
TTITLE0=Ebony Eyes
TTITLE1=For Once In My Life
TTITLE2=Isn't She Lovely
TTITLE3=Part Time Lover
TTITLE4=Signed Sealed And Delivered
TTITLE5=Superstition
TTITLE6=You Are The Sunshine Of My Life
TTITLE7=I Just Called To Say I Love You
TTITLE8=My Cherie Amour
TTITLE9=Easy Lover
TTITLE10=Against All Odds
TTITLE11=Another Day In Paradise
TTITLE12=I Missed Again
TTITLE13=In The Air Tonight
TTITLE14=Sussudio
TTITLE15=Can't Hurry Love
TTITLE16=One More Night
TTITLE17=Two Hearts
TTITLE18=A Groovy Kind Of Love
EXTD=
EXTT0=
EXTT1=
EXTT2=
EXTT3=
EXTT4=
EXTT5=
EXTT6=
EXTT7=
EXTT8=
EXTT9=
EXTT10=
EXTT11=
EXTT12=
EXTT13=
EXTT14=
EXTT15=
EXTT16=
EXTT17=
EXTT18=
PLAYORDER=
